<?xml version="1.0" encoding="UTF-8"?>
<svg width="12px" height="12px" viewBox="0 0 12 12" version="1.1" xmlns="http://www.w3.org/2000/svg" xmlns:xlink="http://www.w3.org/1999/xlink">
    <!-- Generator: Sketch 51.1 (57501) - http://www.bohemiancoding.com/sketch -->
    <title>Shape</title>
    <desc>Created with Sketch.</desc>
    <defs></defs>
    <g id="design" stroke="none" stroke-width="1" fill="none" fill-rule="evenodd">
        <g id="layout_iphone_6(edit_contact)-copy" transform="translate(-279.000000, -155.000000)" fill="#FFFFFF" fill-rule="nonzero">
            <g id="Group-8" transform="translate(267.000000, 144.000000)">
                <path d="M23.2227229,11.7766379 C22.1897625,10.7411207 20.5099235,10.7411207 19.4769632,11.7766379 L12.6093108,18.6417334 C12.5556173,18.6954269 12.5223785,18.7644614 12.5121512,18.8386095 L12.0033415,22.6073807 C11.9880005,22.7147677 12.026353,22.8221547 12.1005011,22.8963028 C12.1644219,22.9602236 12.2539111,22.9985761 12.3434002,22.9985761 C12.3587412,22.9985761 12.3740822,22.9985761 12.3894232,22.9960193 L14.6598906,22.6891994 C14.8490962,22.6636311 14.9820515,22.4897664 14.9564831,22.3005608 C14.9309148,22.1113552 14.7570502,21.9783999 14.5678446,22.0039683 L12.7473798,22.2494242 L13.1027795,19.6210003 L15.8692724,22.3874931 C15.9331932,22.451414 16.0226823,22.4897664 16.1121715,22.4897664 C16.2016606,22.4897664 16.2911497,22.4539708 16.3550706,22.3874931 L23.2227229,15.5223976 C23.7238621,15.0212585 24,14.356482 24,13.6482394 C24,12.9399967 23.7238621,12.2752203 23.2227229,11.7766379 Z M19.6099184,12.6203927 L20.7630499,13.7735242 L14.4962533,20.0403208 L13.3431218,18.8871893 L19.6099184,12.6203927 Z M16.1147283,21.656239 L14.9871651,20.5286758 L21.2539618,14.2618792 L22.381525,15.3894423 L16.1147283,21.656239 Z M22.8622095,14.8959737 L20.1033871,12.1371513 C20.4536732,11.8482292 20.8908916,11.6897056 21.3511214,11.6897056 C21.8752721,11.6897056 22.366184,11.8942522 22.7369247,12.2624361 C23.1076654,12.63062 23.3096552,13.1240887 23.3096552,13.6482394 C23.3096552,14.1110261 23.1511316,14.5456876 22.8622095,14.8959737 Z" id="Shape"></path>
            </g>
        </g>
    </g>
</svg>