<?xml version="1.0" encoding="UTF-8"?>
<svg width="17px" height="11px" viewBox="0 0 17 11" version="1.1" xmlns="http://www.w3.org/2000/svg" xmlns:xlink="http://www.w3.org/1999/xlink">
    <!-- Generator: Sketch 51.1 (57501) - http://www.bohemiancoding.com/sketch -->
    <title>menu</title>
    <desc>Created with Sketch.</desc>
    <defs></defs>
    <g id="design" stroke="none" stroke-width="1" fill="none" fill-rule="evenodd">
        <g id="layout_iphone_6(all_contacts)" transform="translate(-23.000000, -90.000000)" fill="#ABAFC3" fill-rule="nonzero" stroke="#AAAFC5">
            <g id="menu" transform="translate(24.000000, 91.000000)">
                <path d="M14.6588596,0 L0.311900585,0 C0.139736842,0 0,0.139736842 0,0.311900585 C0,0.484064327 0.139736842,0.62380117 0.311900585,0.62380117 L14.6588889,0.62380117 C14.8310526,0.62380117 14.9707895,0.484064327 14.9707895,0.311900585 C14.9707895,0.139736842 14.8310234,0 14.6588596,0 Z" id="Shape"></path>
                <path d="M14.6588596,4.36646199 L0.311900585,4.36646199 C0.139736842,4.36646199 0,4.50619883 0,4.67836257 C0,4.85052632 0.139736842,4.99026316 0.311900585,4.99026316 L14.6588889,4.99026316 C14.8310526,4.99026316 14.9707895,4.85052632 14.9707895,4.67836257 C14.9707895,4.50619883 14.8310234,4.36646199 14.6588596,4.36646199 Z" id="Shape"></path>
                <path d="M14.6588596,8.73295322 L0.311900585,8.73295322 C0.139736842,8.73295322 0,8.87266082 0,9.04482456 C0,9.2169883 0.139736842,9.35672515 0.311900585,9.35672515 L14.6588889,9.35672515 C14.8310526,9.35672515 14.9707895,9.2169883 14.9707895,9.04482456 C14.9707602,8.87266082 14.8310234,8.73295322 14.6588596,8.73295322 Z" id="Shape"></path>
            </g>
        </g>
    </g>
</svg>