<?xml version="1.0" encoding="UTF-8"?>
<svg width="16px" height="16px" viewBox="0 0 16 16" version="1.1" xmlns="http://www.w3.org/2000/svg" xmlns:xlink="http://www.w3.org/1999/xlink">
    <!-- Generator: Sketch 51.1 (57501) - http://www.bohemiancoding.com/sketch -->
    <title>Shape</title>
    <desc>Created with Sketch.</desc>
    <defs></defs>
    <g id="design" stroke="none" stroke-width="1" fill="none" fill-rule="evenodd">
        <g id="layout-desktop(all_contact)" transform="translate(-260.000000, -278.000000)" fill="#FFFFFF" fill-rule="nonzero">
            <path d="M271.435106,288.062893 L270.712407,288.062893 L270.456261,287.815895 C271.352773,286.773013 271.89251,285.419097 271.89251,283.946255 C271.89251,280.662093 269.230417,278 265.946255,278 C262.662093,278 260,280.662093 260,283.946255 C260,287.230417 262.662093,289.89251 265.946255,289.89251 C267.419097,289.89251 268.773013,289.352773 269.815895,288.456261 L270.062893,288.712407 L270.062893,289.435106 L274.636935,294 L276,292.636935 L271.435106,288.062893 Z M265.946255,288.062893 C263.668382,288.062893 261.829617,286.224128 261.829617,283.946255 C261.829617,281.668382 263.668382,279.829617 265.946255,279.829617 C268.224128,279.829617 270.062893,281.668382 270.062893,283.946255 C270.062893,286.224128 268.224128,288.062893 265.946255,288.062893 Z" id="Shape"></path>
        </g>
    </g>
</svg>